<svg width="24" height="24" viewBox="0 0 24 24" fill="none" xmlns="http://www.w3.org/2000/svg">
<path d="M11.5364 21.1432C16.8443 21.1432 21.1471 16.8403 21.1471 11.5325C21.1471 6.22471 16.8443 1.92188 11.5364 1.92188C6.22862 1.92188 1.92578 6.22471 1.92578 11.5325C1.92578 16.8403 6.22862 21.1432 11.5364 21.1432Z" fill="#898282"/>
<path d="M14.4196 8.64933L8.65324 14.4157M8.65324 8.64933L14.4196 14.4157M21.1471 11.5325C21.1471 16.8403 16.8443 21.1432 11.5364 21.1432C6.22862 21.1432 1.92578 16.8403 1.92578 11.5325C1.92578 6.22471 6.22862 1.92188 11.5364 1.92188C16.8443 1.92188 21.1471 6.22471 21.1471 11.5325Z" stroke="#312F2F" stroke-width="1.72426" stroke-linecap="round" stroke-linejoin="round"/>
</svg>
