<svg width="35" height="35" viewBox="0 0 35 35" fill="none" xmlns="http://www.w3.org/2000/svg">
<rect width="35" height="35" rx="16" fill="#1F1F36"/>
<path fill-rule="evenodd" clip-rule="evenodd" d="M16.757 7.53966C17.4295 6.82011 18.5705 6.82011 19.243 7.53966L21.0216 9.44259C21.0695 9.49385 21.1372 9.52191 21.2073 9.51954L23.8105 9.43157C24.7948 9.3983 25.6017 10.2052 25.5684 11.1895L25.4805 13.7927C25.4781 13.8628 25.5061 13.9305 25.5574 13.9784L27.4603 15.757C28.1799 16.4295 28.1799 17.5705 27.4603 18.243L25.5574 20.0216C25.5061 20.0695 25.4781 20.1372 25.4805 20.2073L25.5684 22.8105C25.6017 23.7948 24.7948 24.6017 23.8105 24.5684L21.2073 24.4805C21.1372 24.4781 21.0695 24.5061 21.0216 24.5574L19.243 26.4603C18.5705 27.1799 17.4295 27.1799 16.757 26.4603L14.9784 24.5574C14.9305 24.5061 14.8628 24.4781 14.7927 24.4805L12.1895 24.5684C11.2052 24.6017 10.3983 23.7948 10.4316 22.8105L10.5195 20.2073C10.5219 20.1372 10.4939 20.0695 10.4426 20.0216L8.53966 18.243C7.82011 17.5705 7.82011 16.4295 8.53966 15.757L10.4426 13.9784C10.4939 13.9305 10.5219 13.8628 10.5195 13.7927L10.4316 11.1895C10.3983 10.2052 11.2052 9.3983 12.1895 9.43157L14.7927 9.51954C14.8628 9.52191 14.9305 9.49385 14.9784 9.44259L16.757 7.53966ZM18.1776 8.53546C18.0815 8.43267 17.9185 8.43267 17.8224 8.53546L16.0439 10.4384C15.7085 10.7973 15.2343 10.9937 14.7434 10.9771L12.1402 10.8891C11.9996 10.8843 11.8843 10.9996 11.8891 11.1402L11.9771 13.7434C11.9937 14.2343 11.7973 14.7085 11.4384 15.0439L9.53546 16.8224C9.43267 16.9185 9.43267 17.0815 9.53546 17.1776L11.4384 18.9561C11.7973 19.2915 11.9937 19.7657 11.9771 20.2566L11.8891 22.8598C11.8843 23.0004 11.9996 23.1157 12.1402 23.1109L14.7434 23.0229C15.2343 23.0063 15.7085 23.2027 16.0439 23.5616L17.8224 25.4645C17.9185 25.5673 18.0815 25.5673 18.1776 25.4645L19.9561 23.5616C20.2915 23.2027 20.7657 23.0063 21.2566 23.0229L23.8598 23.1109C24.0004 23.1157 24.1157 23.0004 24.1109 22.8598L24.0229 20.2566C24.0063 19.7657 24.2027 19.2915 24.5616 18.9561L26.4645 17.1776C26.5673 17.0815 26.5673 16.9185 26.4645 16.8224L24.5616 15.0439C24.2027 14.7085 24.0063 14.2343 24.0229 13.7434L24.1109 11.1402C24.1157 10.9996 24.0004 10.8843 23.8598 10.8891L21.2566 10.9771C20.7657 10.9937 20.2915 10.7973 19.9561 10.4384L18.1776 8.53546Z" fill="white"/>
<path d="M18 11.9302C18 11.6617 18.2181 11.4418 18.4855 11.4653C19.781 11.5789 21.0016 12.1444 21.9285 13.0713C22.9703 14.1132 23.5557 15.5263 23.5557 16.9997C23.5557 18.4732 22.9704 19.8863 21.9285 20.9282C21.0016 21.855 19.7811 22.4206 18.4855 22.5342C18.2181 22.5576 18 22.3378 18 22.0693L18 16.9997L18 11.9302Z" fill="white"/>
</svg>
