<svg width="28" height="28" viewBox="0 0 28 28" fill="none" xmlns="http://www.w3.org/2000/svg">
<g clip-path="url(#clip0_9792_5994)">
<path fill-rule="evenodd" clip-rule="evenodd" d="M3.91615 10.2662C3.91615 8.13525 5.64361 6.40778 7.77455 6.40778H20.221C22.352 6.40778 24.0794 8.13525 24.0794 10.2662V17.7341C24.0794 19.865 22.352 21.5925 20.221 21.5925H7.77455C5.64361 21.5925 3.91615 19.865 3.91615 17.7341V10.2662ZM7.77455 4.16742C4.40629 4.16742 1.67578 6.89793 1.67578 10.2662V17.7341C1.67578 21.1023 4.40629 23.8328 7.77455 23.8328H20.221C23.5893 23.8328 26.3198 21.1023 26.3198 17.7341V10.2662C26.3198 6.89793 23.5893 4.16742 20.221 4.16742H7.77455ZM12.0871 9.30508C11.7411 9.09745 11.3101 9.09201 10.9589 9.29085C10.6077 9.48969 10.3906 9.86206 10.3906 10.2656V17.7335C10.3906 18.1371 10.6077 18.5095 10.9589 18.7083C11.3101 18.9071 11.7411 18.9017 12.0871 18.6941L18.3104 14.9601C18.6478 14.7577 18.8542 14.393 18.8542 13.9996C18.8542 13.6061 18.6478 13.2415 18.3104 13.039L12.0871 9.30508ZM15.5568 13.9996L12.631 15.7551V12.2441L15.5568 13.9996Z" fill="#F78787"/>
</g>
<defs>
<clipPath id="clip0_9792_5994">
<rect width="28" height="28" fill="white"/>
</clipPath>
</defs>
</svg>
