<svg width="70" height="32" viewBox="0 0 70 32" fill="none" xmlns="http://www.w3.org/2000/svg">
<path d="M49.7715 7.93196L53.6509 19.9945C54.0762 21.3166 52.7306 22.5872 50.9052 22.5872H15.9174C12.5844 22.5872 9.60617 21.0371 8.46043 18.706L8.14265 18.0595C7.97404 17.7164 8.315 17.353 8.80553 17.353H31.6552C31.9258 17.353 32.1452 17.1896 32.1452 16.9881C32.1452 15.4766 30.5 14.2512 28.4706 14.2512H11.8202C8.48728 14.2512 5.50902 12.7011 4.36329 10.37L4.07727 9.78811C3.90866 9.44509 4.24963 9.08171 4.74011 9.08171H26.4496C26.7201 9.08171 26.9395 8.91832 26.9395 8.71677C26.9395 7.20527 25.2943 5.97995 23.2649 5.97995H7.75481C4.42188 5.97995 1.44362 4.42983 0.297892 2.09875L0.0436347 1.58145C-0.124973 1.23837 0.215992 0.875 0.706471 0.875H37.7589C43.4725 0.875 48.4406 3.79353 49.7715 7.93196Z" fill="url(#paint0_linear_9792_5981)"/>
<path d="M63.5068 11.5222L68.9473 28.9248C69.3598 30.2436 68.0155 31.5046 66.1976 31.5046H29.7049C26.2486 31.5046 23.1892 29.8395 22.1393 27.3869L21.7695 26.5231C21.5518 26.0144 22.0614 25.4949 22.7783 25.4949H56.1012C57.9293 25.4949 59.2754 24.2207 58.8453 22.8973L53.9779 7.92326C53.8166 7.42696 54.3214 6.9491 55.007 6.9491H55.7728C59.4646 6.9491 62.6696 8.84412 63.5068 11.5222Z" fill="url(#paint1_linear_9792_5981)"/>
<defs>
<linearGradient id="paint0_linear_9792_5981" x1="26.8528" y1="0.875" x2="26.8528" y2="22.5872" gradientUnits="userSpaceOnUse">
<stop stop-color="#FFC803"/>
<stop offset="1" stop-color="#FFA903"/>
</linearGradient>
<linearGradient id="paint1_linear_9792_5981" x1="45.3039" y1="6.9491" x2="45.3039" y2="31.5046" gradientUnits="userSpaceOnUse">
<stop stop-color="#FF7421"/>
<stop offset="1" stop-color="#EC5901"/>
</linearGradient>
</defs>
</svg>
