<svg width="52" height="52" viewBox="0 0 52 52" fill="none" xmlns="http://www.w3.org/2000/svg">
<rect opacity="0.1" width="52" height="52" rx="10" fill="black"/>
<path fill-rule="evenodd" clip-rule="evenodd" d="M26.0031 15.1064C19.9897 15.1064 15.1094 19.9867 15.1094 26.0002C15.1094 32.0137 19.9897 36.894 26.0031 36.894H30.2031C31.0005 36.894 31.6469 36.2476 31.6469 35.4502C31.6469 34.6529 31.0005 34.0065 30.2031 34.0065H26.0031C21.6636 34.0065 17.9969 30.3398 17.9969 26.0002C17.9969 21.6607 21.6636 17.994 26.0031 17.994C30.3427 17.994 34.0094 21.6607 34.0094 26.0002V27.5017C34.0094 27.8013 33.8722 28.1202 33.6399 28.3673C33.4077 28.6142 33.1123 28.7565 32.8282 28.7565C32.544 28.7565 32.2486 28.6142 32.0164 28.3673C31.7841 28.1202 31.6469 27.8013 31.6469 27.5017V26.0002C31.6469 22.8847 29.1186 20.3565 26.0031 20.3565C22.8877 20.3565 20.3594 22.8847 20.3594 26.0002C20.3594 29.1157 22.8877 31.644 26.0031 31.644C27.4041 31.644 28.6968 31.1322 29.6828 30.2802C30.4577 31.1209 31.6126 31.644 32.8282 31.644C35.1242 31.644 36.8969 29.7774 36.8969 27.5017V26.0002C36.8969 19.9867 32.0166 15.1064 26.0031 15.1064ZM23.2469 26.0002C23.2469 24.4747 24.4776 23.244 26.0031 23.244C27.5287 23.244 28.7594 24.4747 28.7594 26.0002C28.7594 27.5258 27.5287 28.7565 26.0031 28.7565C24.4776 28.7565 23.2469 27.5258 23.2469 26.0002Z" fill="#40354B"/>
</svg>
