<svg width="28" height="28" viewBox="0 0 28 28" fill="none" xmlns="http://www.w3.org/2000/svg">
<path d="M22.6337 6.65355C25.5154 10.9206 26.9386 15.7336 26.4066 21.2745C26.4044 21.298 26.3922 21.3195 26.3731 21.3337C24.1908 22.9474 22.0765 23.9268 19.9918 24.5763C19.9755 24.5813 19.9582 24.581 19.9421 24.5755C19.926 24.57 19.9121 24.5597 19.9021 24.5458C19.4205 23.8709 18.9829 23.1594 18.5995 22.4123C18.5775 22.3683 18.5976 22.3153 18.6429 22.2979C19.3379 22.0342 19.9988 21.7181 20.6345 21.3439C20.6845 21.3144 20.6877 21.2421 20.6415 21.2074C20.5066 21.1066 20.3729 21.0006 20.245 20.8946C20.2211 20.875 20.1889 20.8711 20.1618 20.8843C16.0348 22.8035 11.5139 22.8035 7.33818 20.8843C7.31107 20.8721 7.27886 20.8762 7.25557 20.8955C7.12799 21.0015 6.99403 21.1066 6.86039 21.2074C6.81414 21.2421 6.81797 21.3144 6.86836 21.3439C7.50404 21.7111 8.16491 22.0342 8.85896 22.2992C8.90393 22.3166 8.9253 22.3683 8.90298 22.4123C8.52789 23.1604 8.09028 23.8719 7.59973 24.5468C7.57836 24.5741 7.54327 24.5866 7.5101 24.5763C5.4353 23.9268 3.32094 22.9474 1.13865 21.3337C1.12047 21.3195 1.10739 21.297 1.10548 21.2736C0.660856 16.4808 1.56701 11.6279 4.87489 6.65259C4.88287 6.63942 4.89499 6.62914 4.90902 6.62304C6.53665 5.87076 8.28038 5.31731 10.1029 5.00123C10.1361 4.99609 10.1692 5.01151 10.1865 5.04106C10.4116 5.44258 10.669 5.95748 10.8432 6.37827C12.7642 6.08276 14.7153 6.08276 16.6766 6.37827C16.8507 5.96648 17.0992 5.44258 17.3234 5.04106C17.3314 5.0264 17.3438 5.01466 17.3588 5.0075C17.3738 5.00035 17.3906 4.99816 17.407 5.00123C19.2304 5.31827 20.9742 5.87172 22.6005 6.62304C22.6149 6.62914 22.6267 6.63942 22.6337 6.65355ZM11.8198 15.7664C11.8399 14.3495 10.8142 13.1771 9.52653 13.1771C8.24944 13.1771 7.23357 14.3392 7.23357 15.7664C7.23357 17.1932 8.26953 18.3554 9.52653 18.3554C10.8039 18.3554 11.8198 17.1932 11.8198 15.7664ZM20.2983 15.7664C20.3184 14.3495 19.2926 13.1771 18.0053 13.1771C16.7279 13.1771 15.712 14.3392 15.712 15.7664C15.712 17.1932 16.748 18.3554 18.0053 18.3554C19.2926 18.3554 20.2983 17.1932 20.2983 15.7664Z" fill="white"/>
</svg>
