<svg width="25" height="25" viewBox="0 0 25 25" fill="none" xmlns="http://www.w3.org/2000/svg">
<path fill-rule="evenodd" clip-rule="evenodd" d="M11.757 2.53966C12.4295 1.82011 13.5705 1.82011 14.243 2.53966L16.0216 4.44259C16.0695 4.49385 16.1372 4.52191 16.2073 4.51954L18.8105 4.43157C19.7948 4.3983 20.6017 5.20516 20.5684 6.18949L20.4805 8.79266C20.4781 8.86279 20.5061 8.93053 20.5574 8.97845L22.4603 10.757C23.1799 11.4295 23.1799 12.5705 22.4603 13.243L20.5574 15.0216C20.5061 15.0695 20.4781 15.1372 20.4805 15.2073L20.5684 17.8105C20.6017 18.7948 19.7948 19.6017 18.8105 19.5684L16.2073 19.4805C16.1372 19.4781 16.0695 19.5061 16.0216 19.5574L14.243 21.4603C13.5705 22.1799 12.4295 22.1799 11.757 21.4603L9.97845 19.5574C9.93053 19.5061 9.86279 19.4781 9.79266 19.4805L7.18949 19.5684C6.20517 19.6017 5.3983 18.7948 5.43157 17.8105L5.51954 15.2073C5.52191 15.1372 5.49385 15.0695 5.44259 15.0216L3.53966 13.243C2.82011 12.5705 2.82011 11.4295 3.53966 10.757L5.44259 8.97845C5.49385 8.93053 5.52191 8.86279 5.51954 8.79266L5.43157 6.18949C5.3983 5.20517 6.20516 4.3983 7.18949 4.43157L9.79266 4.51954C9.86279 4.52191 9.93053 4.49385 9.97845 4.44259L11.757 2.53966ZM13.1776 3.53546C13.0815 3.43267 12.9185 3.43267 12.8224 3.53546L11.0439 5.43839C10.7085 5.79727 10.2343 5.99367 9.7434 5.97707L7.14023 5.8891C6.99961 5.88435 6.88435 5.99961 6.8891 6.14023L6.97707 8.7434C6.99367 9.23434 6.79727 9.7085 6.43839 10.0439L4.53546 11.8224C4.43267 11.9185 4.43267 12.0815 4.53546 12.1776L6.43839 13.9561C6.79727 14.2915 6.99367 14.7657 6.97707 15.2566L6.8891 17.8598C6.88435 18.0004 6.99961 18.1157 7.14023 18.1109L9.7434 18.0229C10.2343 18.0063 10.7085 18.2027 11.0439 18.5616L12.8224 20.4645C12.9185 20.5673 13.0815 20.5673 13.1776 20.4645L14.9561 18.5616C15.2915 18.2027 15.7657 18.0063 16.2566 18.0229L18.8598 18.1109C19.0004 18.1157 19.1157 18.0004 19.1109 17.8598L19.0229 15.2566C19.0063 14.7657 19.2027 14.2915 19.5616 13.9561L21.4645 12.1776C21.5673 12.0815 21.5673 11.9185 21.4645 11.8224L19.5616 10.0439C19.2027 9.7085 19.0063 9.23434 19.0229 8.7434L19.1109 6.14023C19.1157 5.99961 19.0004 5.88435 18.8598 5.8891L16.2566 5.97707C15.7657 5.99367 15.2915 5.79727 14.9561 5.43839L13.1776 3.53546Z" fill="white"/>
<path d="M13 6.93018C13 6.6617 13.2181 6.44184 13.4855 6.4653C14.781 6.57891 16.0016 7.14445 16.9285 8.07128C17.9703 9.11317 18.5557 10.5263 18.5557 11.9997C18.5557 13.4732 17.9704 14.8863 16.9285 15.9282C16.0016 16.855 14.7811 17.4206 13.4855 17.5342C13.2181 17.5576 13 17.3378 13 17.0693L13 11.9997L13 6.93018Z" fill="white"/>
</svg>
