<svg width="53" height="32" viewBox="0 0 53 32" fill="none" xmlns="http://www.w3.org/2000/svg">
<path d="M37.968 7.22084L40.9274 19.5635C41.2518 20.9163 40.2253 22.2164 38.8328 22.2164H12.1425C9.59998 22.2164 7.32802 20.6303 6.45401 18.245L6.21159 17.5835C6.08297 17.2325 6.34306 16.8607 6.71726 16.8607H24.1481C24.3545 16.8607 24.5218 16.6935 24.5218 16.4873C24.5218 14.9407 23.2668 13.6869 21.7187 13.6869H9.01701C6.47448 13.6869 4.20254 12.1007 3.32852 9.71554L3.11033 9.12009C2.9817 8.7691 3.24181 8.39728 3.61597 8.39728H20.177C20.3833 8.39728 20.5507 8.2301 20.5507 8.02387C20.5507 6.47727 19.2957 5.22349 17.7475 5.22349H5.91572C3.37322 5.22349 1.10126 3.63738 0.227246 1.25217L0.0332865 0.722856C-0.0953355 0.371812 0.164768 0 0.538929 0H28.8042C33.1628 0 36.9527 2.9863 37.968 7.22084Z" fill="url(#paint0_linear_9792_6277)"/>
<path d="M48.4482 10.8946L52.5984 28.7014C52.9131 30.0508 51.8876 31.341 50.5008 31.341H22.6625C20.0259 31.341 17.6921 29.6373 16.8911 27.1277L16.6091 26.2439C16.443 25.7234 16.8317 25.1918 17.3786 25.1918H42.7988C44.1934 25.1918 45.2203 23.888 44.8921 22.5338L41.1791 7.21211C41.056 6.7043 41.4411 6.21533 41.9641 6.21533H42.5483C45.3646 6.21533 47.8095 8.15436 48.4482 10.8946Z" fill="url(#paint1_linear_9792_6277)"/>
<defs>
<linearGradient id="paint0_linear_9792_6277" x1="20.4845" y1="0" x2="20.4845" y2="22.2164" gradientUnits="userSpaceOnUse">
<stop stop-color="#FFC803"/>
<stop offset="1" stop-color="#FFA903"/>
</linearGradient>
<linearGradient id="paint1_linear_9792_6277" x1="34.5621" y1="6.21533" x2="34.5621" y2="31.341" gradientUnits="userSpaceOnUse">
<stop stop-color="#FF7421"/>
<stop offset="1" stop-color="#EC5901"/>
</linearGradient>
</defs>
</svg>
