<svg width="24" height="24" viewBox="0 0 24 24" fill="none" xmlns="http://www.w3.org/2000/svg">
<path opacity="0.12" d="M21.4645 6.47822C21.9662 4.6867 22.217 3.79094 21.9842 3.17626C21.7812 2.64033 21.3581 2.21722 20.8222 2.01425C20.2075 1.78145 19.3118 2.03226 17.5202 2.53389L7.29434 5.39715C4.46467 6.18945 3.04983 6.58561 2.63986 7.25826C2.28528 7.84003 2.25125 8.56229 2.54956 9.17483C2.89446 9.88305 4.26579 10.4105 7.00843 11.4653L9.67105 12.4894C10.1599 12.6774 10.4043 12.7714 10.6099 12.9176C10.7921 13.0472 10.9513 13.2064 11.0808 13.3886C11.227 13.5942 11.321 13.8386 11.509 14.3274L12.533 16.9899C13.5878 19.7326 14.1153 21.1039 14.8235 21.4488C15.436 21.7472 16.1583 21.7131 16.74 21.3586C17.4127 20.9486 17.8089 19.5337 18.6012 16.704L21.4645 6.47822Z" fill="#22272F"/>
<path fill-rule="evenodd" clip-rule="evenodd" d="M17.7225 3.25612C18.6325 3.00131 19.2651 2.82497 19.7479 2.73635C20.2358 2.64681 20.4458 2.67368 20.5566 2.71564C20.8915 2.8425 21.156 3.10694 21.2828 3.4419C21.3248 3.55269 21.3517 3.76268 21.2621 4.25053C21.1735 4.73336 20.9971 5.36596 20.7423 6.276L17.879 16.5018C17.479 17.9304 17.1914 18.955 16.9228 19.6773C16.6381 20.4427 16.4423 20.6617 16.3497 20.7181C15.9861 20.9398 15.5347 20.961 15.1519 20.7746C15.0544 20.7271 14.8389 20.5275 14.4835 19.7922C14.1482 19.0984 13.7656 18.1054 13.233 16.7207L12.2091 14.0582L12.1812 13.9856L12.1812 13.9856C12.0665 13.6869 11.9693 13.4337 11.8494 13.2097L14.5288 10.5303C14.8217 10.2374 14.8217 9.76255 14.5288 9.46966C14.2359 9.17677 13.7611 9.17677 13.4682 9.46966L10.7887 12.1491C10.5648 12.0292 10.3116 11.932 10.0129 11.8173L9.94028 11.7894L7.27766 10.7653C5.89302 10.2328 4.90002 9.85018 4.20622 9.51484C3.47091 9.15944 3.27133 8.94395 3.22385 8.84645C3.0374 8.46362 3.05867 8.01221 3.28029 7.6486C3.33673 7.55599 3.55568 7.36023 4.32115 7.07554C5.04341 6.80692 6.06798 6.51938 7.49656 6.11938L17.7225 3.25612ZM21.0879 1.31288C20.584 1.12204 20.0387 1.15792 19.4772 1.26099C18.9185 1.36353 18.2194 1.55929 17.3549 1.80135L17.3549 1.80136L17.318 1.81168L7.09212 4.67493L7.05475 4.68539L7.05472 4.6854C5.67148 5.0727 4.58626 5.37656 3.79827 5.66963C3.04641 5.94925 2.35297 6.28789 1.99944 6.86794C1.51189 7.66788 1.4651 8.66098 1.87527 9.50322C2.17269 10.1139 2.83123 10.5163 3.55346 10.8654C4.31041 11.2312 5.36228 11.6358 6.70301 12.1514L6.73919 12.1654L9.40181 13.1894C9.9265 13.3912 10.0648 13.4503 10.1753 13.5289C10.2891 13.6098 10.3886 13.7093 10.4696 13.8232C10.5482 13.9337 10.6072 14.072 10.809 14.5967L11.833 17.2591L11.8469 17.2954C12.3626 18.6361 12.7671 19.688 13.133 20.4449C13.482 21.1672 13.8844 21.8257 14.4951 22.1231C15.3373 22.5333 16.3304 22.4865 17.1304 21.999C17.7104 21.6455 18.0491 20.952 18.3287 20.2002C18.6218 19.4122 18.9256 18.327 19.313 16.9437L19.3234 16.9063L22.1868 6.68046L22.1971 6.64363L22.1971 6.64357C22.4392 5.77912 22.6349 5.08001 22.7375 4.52133C22.8405 3.95976 22.8764 3.41453 22.6856 2.91064C22.4065 2.17374 21.8247 1.59196 21.0879 1.31288Z" fill="#E8EAED"/>
</svg>
