<svg width="24" height="24" viewBox="0 0 24 24" fill="none" xmlns="http://www.w3.org/2000/svg">
<path opacity="0.12" d="M21.4645 6.47834C21.9662 4.68682 22.217 3.79106 21.9842 3.17638C21.7812 2.64045 21.3581 2.21734 20.8222 2.01437C20.2075 1.78157 19.3118 2.03239 17.5202 2.53401L7.29434 5.39727C4.46467 6.18958 3.04983 6.58573 2.63986 7.25838C2.28528 7.84015 2.25125 8.56241 2.54956 9.17495C2.89446 9.88317 4.26579 10.4106 7.00843 11.4655L9.67105 12.4895C10.1599 12.6776 10.4043 12.7716 10.6099 12.9177C10.7921 13.0473 10.9513 13.2065 11.0808 13.3887C11.227 13.5943 11.321 13.8387 11.509 14.3276L12.533 16.99C13.5878 19.7327 14.1153 21.104 14.8235 21.449C15.436 21.7473 16.1583 21.7133 16.74 21.3587C17.4127 20.9487 17.8089 19.5339 18.6012 16.7042L21.4645 6.47834Z" fill="#22272F"/>
<path fill-rule="evenodd" clip-rule="evenodd" d="M17.7225 3.25625C18.6325 3.00143 19.2651 2.82509 19.7479 2.73647C20.2358 2.64693 20.4458 2.6738 20.5566 2.71576C20.8915 2.84262 21.156 3.10707 21.2828 3.44202C21.3248 3.55281 21.3517 3.7628 21.2621 4.25065C21.1735 4.73348 20.9971 5.36608 20.7423 6.27612L17.879 16.502C17.479 17.9305 17.1914 18.9551 16.9228 19.6774C16.6381 20.4429 16.4423 20.6618 16.3497 20.7183C15.9861 20.9399 15.5347 20.9611 15.1519 20.7747C15.0544 20.7272 14.8389 20.5276 14.4835 19.7923C14.1482 19.0985 13.7656 18.1055 13.233 16.7208L12.2091 14.0583L12.1812 13.9857L12.1812 13.9857C12.0665 13.6871 11.9693 13.4338 11.8494 13.2099L14.5288 10.5304C14.8217 10.2375 14.8217 9.76268 14.5288 9.46978C14.2359 9.17689 13.7611 9.17689 13.4682 9.46978L10.7887 12.1492C10.5648 12.0293 10.3116 11.9321 10.0129 11.8174L9.94028 11.7895L7.27766 10.7655C5.89302 10.2329 4.90002 9.8503 4.20622 9.51496C3.47091 9.15956 3.27133 8.94407 3.22385 8.84657C3.0374 8.46374 3.05867 8.01233 3.28029 7.64872C3.33673 7.55612 3.55568 7.36035 4.32115 7.07566C5.04341 6.80704 6.06798 6.5195 7.49656 6.1195L17.7225 3.25625ZM21.0879 1.313C20.584 1.12216 20.0387 1.15804 19.4772 1.26111C18.9185 1.36366 18.2194 1.55942 17.3549 1.80148L17.3549 1.80149L17.318 1.8118L7.09212 4.67505L7.05475 4.68552L7.05472 4.68552C5.67148 5.07283 4.58626 5.37668 3.79827 5.66975C3.04641 5.94938 2.35297 6.28801 1.99944 6.86806C1.51189 7.668 1.4651 8.66111 1.87527 9.50334C2.17269 10.1141 2.83123 10.5164 3.55346 10.8655C4.31041 11.2313 5.36228 11.6359 6.70301 12.1516L6.73919 12.1655L9.40181 13.1896C9.9265 13.3914 10.0648 13.4504 10.1753 13.529C10.2891 13.61 10.3886 13.7095 10.4696 13.8233C10.5482 13.9338 10.6072 14.0721 10.809 14.5968L11.833 17.2593L11.8469 17.2955C12.3626 18.6362 12.7671 19.6881 13.133 20.445C13.482 21.1673 13.8844 21.8258 14.4951 22.1233C15.3373 22.5334 16.3304 22.4867 17.1304 21.9991C17.7104 21.6456 18.0491 20.9521 18.3287 20.2003C18.6218 19.4123 18.9256 18.3271 19.313 16.9438L19.3234 16.9064L22.1868 6.68058L22.1971 6.64375L22.1971 6.64369C22.4392 5.77924 22.6349 5.08014 22.7375 4.52145C22.8405 3.95988 22.8764 3.41465 22.6856 2.91076C22.4065 2.17386 21.8247 1.59208 21.0879 1.313Z" fill="#E8EAED"/>
</svg>
